<svg width="79" height="10" viewBox="0 0 79 10" fill="none" xmlns="http://www.w3.org/2000/svg">
<path d="M3.096 5.184L4.2 5.388C5.124 5.556 5.808 5.832 5.808 6.576C5.808 7.512 4.836 7.788 4.068 7.788C3.036 7.788 2.148 7.404 1.956 6.132H0.3C0.456 8.004 1.872 9.156 4.008 9.156C5.76 9.156 7.536 8.28 7.536 6.492C7.536 4.692 5.976 4.128 4.56 3.876L3.42 3.672C2.724 3.54 2.208 3.204 2.208 2.592C2.208 1.812 3.096 1.512 3.888 1.512C4.704 1.512 5.592 1.848 5.724 2.868H7.38C7.296 1.2 5.76 0.144 3.96 0.144C2.352 0.144 0.492 0.912 0.492 2.664C0.492 4.176 1.68 4.908 3.096 5.184ZM17.9793 6.144H16.3473C16.0713 7.32 15.2193 7.788 14.1873 7.788C12.9273 7.788 11.9193 6.684 11.9193 4.608C11.9193 2.592 12.9273 1.512 14.2473 1.512C15.2073 1.512 16.0233 1.908 16.3473 3.12H17.9793C17.6913 1.308 16.2993 0.144 14.2593 0.144C11.7273 0.144 10.1433 1.86 10.1433 4.608C10.1433 7.38 11.6313 9.156 14.2113 9.156C16.2993 9.156 17.7513 7.896 17.9793 6.144ZM28.2003 0.3H26.4843V3.852H22.5843V0.3H20.8683V9H22.5843V5.244H26.4843V9H28.2003V0.3ZM35.1028 5.592L36.8308 9H38.7388L36.8068 5.232C37.8868 4.776 38.3788 3.936 38.3788 2.94C38.3788 1.116 37.2868 0.3 34.4188 0.3H31.5628V9H33.2788V5.592H35.1028ZM33.2788 1.644H34.6108C35.7748 1.644 36.6148 1.944 36.6148 2.952C36.6148 3.804 36.0268 4.26 34.6948 4.26H33.2788V1.644ZM43.9439 0.3L40.7039 9H42.4559L43.0679 7.236H46.4519L47.0639 9H48.9239L45.6719 0.3H43.9439ZM43.5599 5.832L44.7599 2.4L45.9599 5.832H43.5599ZM54.0788 0.3H51.4988V9H54.0788C56.8388 9 58.9148 8.1 58.9148 4.644C58.9148 1.2 56.8388 0.3 54.0788 0.3ZM54.0068 1.644C55.5908 1.644 57.1388 2.04 57.1388 4.644C57.1388 7.26 55.5908 7.656 54.0068 7.656H53.2148V1.644H54.0068ZM61.9237 0.3V9H68.2597V7.608H63.6397V5.244H68.0077V3.852H63.6397V1.692H68.2597V0.3H61.9237ZM74.67 5.592L76.398 9H78.306L76.374 5.232C77.454 4.776 77.946 3.936 77.946 2.94C77.946 1.116 76.854 0.3 73.986 0.3H71.13V9H72.846V5.592H74.67ZM72.846 1.644H74.178C75.342 1.644 76.182 1.944 76.182 2.952C76.182 3.804 75.594 4.26 74.262 4.26H72.846V1.644Z" fill="white"/>
</svg>
