<svg width="187" height="12" viewBox="0 0 187 12" fill="none" xmlns="http://www.w3.org/2000/svg">
<path d="M1 2.31072V11.1212H2.12447V7.95779C2.53224 8.66212 3.23658 9.11933 4.29927 9.11933C5.86858 9.11933 7.10426 7.85893 7.10426 5.65942C7.10426 3.47227 5.86858 2.19951 4.29927 2.19951C3.23658 2.19951 2.53224 2.65672 2.12447 3.36105V2.31072H1ZM2.07504 5.65942C2.07504 3.90475 3.01416 3.16335 4.01506 3.16335C5.21367 3.16335 5.88094 4.07775 5.88094 5.65942C5.88094 7.24109 5.21367 8.1555 4.01506 8.1555C3.01416 8.1555 2.07504 7.41409 2.07504 5.65942ZM13.5053 5.9807C13.5053 7.74772 12.5044 8.22964 11.454 8.22964C10.6508 8.22964 10.1689 7.8095 10.1689 7.17931C10.1689 6.24019 11.4664 5.96834 13.5053 5.75827V5.9807ZM11.2069 9.11933C12.3808 9.11933 13.0728 8.67448 13.4805 7.9825C13.4929 8.37792 13.53 8.71155 13.567 8.95869H14.7039C14.5803 8.32849 14.5185 7.56237 14.5309 6.45026L14.5432 4.8933C14.5556 2.99035 13.7277 2.1748 11.8865 2.1748C10.5026 2.1748 9.21746 2.97799 9.10625 4.41138H10.2678C10.3172 3.59583 10.8485 3.0892 11.8742 3.0892C12.7391 3.0892 13.4188 3.43519 13.4188 4.68323V4.86858C10.6879 5.1775 8.92089 5.63471 8.92089 7.22874C8.92089 8.42735 9.95887 9.11933 11.2069 9.11933ZM20.4006 2.28601C20.2771 2.27366 20.1782 2.27366 20.067 2.27366C19.202 2.29837 18.5224 2.7185 18.1888 3.47227V2.31072H17.089V8.95869H18.2135V5.47407C18.2135 4.01596 18.7325 3.43519 19.7704 3.43519C19.9558 3.43519 20.1659 3.45991 20.4006 3.48462V2.28601ZM22.6854 2.31072H21.635V3.21277H22.6854V7.29052C22.6854 8.67448 22.9819 8.95869 24.2547 8.95869H25.0702V8.01957H24.5018C23.8593 8.01957 23.8098 7.84658 23.8098 7.15459V3.21277H25.0702V2.31072H23.8098V0.642554H22.6854V2.31072ZM31.8462 5.65942C31.8462 3.84297 32.7359 3.18806 33.7986 3.18806C34.8612 3.18806 35.7509 3.8924 35.7509 5.65942C35.7509 7.36466 34.8612 8.13078 33.7986 8.13078C32.7359 8.13078 31.8462 7.42644 31.8462 5.65942ZM30.6476 5.65942C30.6476 8.069 32.2045 9.11933 33.7986 9.11933C35.3926 9.11933 36.9495 8.069 36.9495 5.65942C36.9495 3.24984 35.3926 2.19951 33.7986 2.19951C32.2045 2.19951 30.6476 3.24984 30.6476 5.65942ZM39.4631 2.31072H38.5363V3.21277H39.4631V8.95869H40.5875V3.21277H41.8356V2.31072H40.5875V1.76703C40.5875 1.07504 40.6864 0.939118 41.2795 0.939118H41.8356V0H41.2548C39.7473 0 39.4631 0.444845 39.4631 1.82881V2.31072ZM46.8603 8.95869H48.6644L49.2946 7.14224H52.7792L53.4094 8.95869H55.3248L51.9761 0H50.1967L46.8603 8.95869ZM51.0369 2.16244L52.2726 5.69649H49.8013L51.0369 2.16244ZM59.654 2.16244C57.6274 2.16244 56.3547 3.62055 56.3547 5.64706C56.3547 7.64887 57.5533 9.11933 59.5798 9.11933C60.9885 9.11933 62.2983 8.51384 62.6937 6.69739H61.0626C60.8402 7.50058 60.2842 7.79715 59.6663 7.79715C58.6901 7.79715 58.097 7.01867 58.097 5.62235C58.097 4.23839 58.7272 3.48462 59.654 3.48462C60.3336 3.48462 60.8773 3.95418 61.0009 4.58438H62.632C62.4095 2.92857 61.075 2.16244 59.654 2.16244ZM67.5114 2.16244C65.4849 2.16244 64.2122 3.62055 64.2122 5.64706C64.2122 7.64887 65.4108 9.11933 67.4373 9.11933C68.846 9.11933 70.1558 8.51384 70.5512 6.69739H68.9201C68.6977 7.50058 68.1416 7.79715 67.5238 7.79715C66.5476 7.79715 65.9545 7.01867 65.9545 5.62235C65.9545 4.23839 66.5847 3.48462 67.5114 3.48462C68.1911 3.48462 68.7348 3.95418 68.8583 4.58438H70.4894C70.267 2.92857 68.9325 2.16244 67.5114 2.16244ZM75.4183 9.11933C77.2595 9.11933 78.1615 8.01957 78.5199 7.03103H76.7652C76.4192 7.6118 75.962 7.79715 75.406 7.79715C74.4545 7.79715 73.7996 7.09281 73.7749 6.10427H78.594C78.6682 3.75647 77.4572 2.16244 75.3689 2.16244C73.3671 2.16244 72.0696 3.6329 72.0696 5.60999C72.0696 7.5253 73.2435 9.11933 75.4183 9.11933ZM75.3318 3.41048C76.0856 3.41048 76.827 3.8059 76.8641 4.93037H73.7872C73.8861 3.91711 74.6399 3.41048 75.3318 3.41048ZM82.282 2.31072H80.5768V8.95869H82.282V5.49878C82.282 4.44845 82.5292 3.53405 83.6536 3.53405C84.6175 3.53405 84.8028 4.27546 84.8028 5.14043V8.95869H86.5081V4.76973C86.5081 3.13863 85.8037 2.16244 84.2097 2.16244C83.3942 2.16244 82.6651 2.52079 82.282 3.18806V2.31072ZM89.0552 2.31072H88.1161V3.48462H89.0552V7.16695C89.0552 8.48913 89.3518 8.95869 90.8716 8.95869H92.1197V7.73536H91.6007C90.9952 7.73536 90.7604 7.59944 90.7604 6.91981V3.48462H92.1444V2.31072H90.7604V0.506629H89.0552V2.31072ZM98.2097 8.95869H99.915V2.31072H98.2097V5.77063C98.2097 6.82096 97.9503 7.74772 96.8258 7.74772C95.8619 7.74772 95.7384 7.03103 95.7384 6.14134V2.31072H94.0331V6.51204C94.0331 8.14314 94.6757 9.11933 96.2697 9.11933C97.0853 9.11933 97.8267 8.74862 98.2097 8.08135V8.95869ZM106.133 2.3478C106.021 2.33544 105.873 2.32308 105.762 2.32308C104.996 2.32308 104.39 2.65672 104.007 3.47227V2.31072H102.327V8.95869H104.032V5.47407C104.032 4.22603 104.588 3.91711 105.428 3.91711C105.675 3.91711 105.886 3.92947 106.133 3.95418V2.3478ZM110.808 9.11933C112.649 9.11933 113.551 8.01957 113.909 7.03103H112.155C111.809 7.6118 111.351 7.79715 110.795 7.79715C109.844 7.79715 109.189 7.09281 109.164 6.10427H113.983C114.058 3.75647 112.847 2.16244 110.758 2.16244C108.756 2.16244 107.459 3.6329 107.459 5.60999C107.459 7.5253 108.633 9.11933 110.808 9.11933ZM110.721 3.41048C111.475 3.41048 112.216 3.8059 112.253 4.93037H109.177C109.275 3.91711 110.029 3.41048 110.721 3.41048Z" fill="white"/>
<path d="M125.255 2.34908C125.203 1.90826 124.991 1.56605 124.62 1.32244C124.249 1.07884 123.793 0.957031 123.254 0.957031C122.859 0.957031 122.514 1.02083 122.219 1.14844C121.926 1.27604 121.697 1.4515 121.531 1.6748C121.369 1.89811 121.288 2.15187 121.288 2.43608C121.288 2.67389 121.344 2.87834 121.457 3.04945C121.573 3.21766 121.721 3.35831 121.901 3.47141C122.081 3.58162 122.269 3.67297 122.467 3.74547C122.664 3.81507 122.845 3.87163 123.01 3.91513L123.915 4.15874C124.147 4.21964 124.405 4.30374 124.689 4.41104C124.977 4.51835 125.251 4.6648 125.512 4.85041C125.776 5.03311 125.993 5.26802 126.164 5.55513C126.335 5.84224 126.421 6.1946 126.421 6.61222C126.421 7.09363 126.295 7.52865 126.042 7.91726C125.793 8.30587 125.428 8.61473 124.946 8.84384C124.468 9.07295 123.886 9.1875 123.202 9.1875C122.564 9.1875 122.011 9.08455 121.544 8.87864C121.08 8.67273 120.715 8.38562 120.448 8.01731C120.184 7.649 120.035 7.22124 120 6.73402H121.114C121.143 7.07043 121.256 7.34884 121.453 7.56925C121.653 7.78675 121.905 7.94916 122.21 8.05646C122.517 8.16087 122.848 8.21307 123.202 8.21307C123.614 8.21307 123.983 8.14637 124.311 8.01296C124.639 7.87666 124.898 7.68815 125.09 7.44744C125.281 7.20384 125.377 6.91963 125.377 6.59482C125.377 6.29901 125.294 6.0583 125.129 5.87269C124.964 5.68709 124.746 5.53628 124.476 5.42028C124.207 5.30427 123.915 5.20277 123.602 5.11577L122.506 4.80256C121.81 4.60245 121.259 4.31679 120.853 3.94558C120.447 3.57437 120.244 3.0886 120.244 2.48828C120.244 1.98946 120.378 1.55445 120.648 1.18324C120.921 0.809127 121.286 0.519117 121.744 0.31321C122.206 0.104403 122.72 0 123.289 0C123.863 0 124.373 0.102953 124.82 0.30886C125.267 0.511867 125.62 0.790276 125.881 1.14409C126.145 1.4979 126.285 1.89956 126.299 2.34908H125.255Z" fill="white"/>
<path d="M131.505 9.1701C130.902 9.1701 130.372 9.02655 129.917 8.73944C129.465 8.45233 129.111 8.05066 128.856 7.53445C128.603 7.01823 128.477 6.41501 128.477 5.72479C128.477 5.02876 128.603 4.42119 128.856 3.90208C129.111 3.38296 129.465 2.97985 129.917 2.69274C130.372 2.40563 130.902 2.26207 131.505 2.26207C132.108 2.26207 132.636 2.40563 133.088 2.69274C133.544 2.97985 133.897 3.38296 134.15 3.90208C134.405 4.42119 134.533 5.02876 134.533 5.72479C134.533 6.41501 134.405 7.01823 134.15 7.53445C133.897 8.05066 133.544 8.45233 133.088 8.73944C132.636 9.02655 132.108 9.1701 131.505 9.1701ZM131.505 8.24787C131.963 8.24787 132.34 8.13042 132.636 7.89551C132.932 7.6606 133.151 7.35174 133.293 6.96893C133.435 6.58611 133.506 6.1714 133.506 5.72479C133.506 5.27817 133.435 4.86201 133.293 4.4763C133.151 4.09058 132.932 3.77882 132.636 3.54102C132.34 3.30321 131.963 3.1843 131.505 3.1843C131.047 3.1843 130.67 3.30321 130.374 3.54102C130.078 3.77882 129.859 4.09058 129.717 4.4763C129.575 4.86201 129.504 5.27817 129.504 5.72479C129.504 6.1714 129.575 6.58611 129.717 6.96893C129.859 7.35174 130.078 7.6606 130.374 7.89551C130.67 8.13042 131.047 8.24787 131.505 8.24787Z" fill="white"/>
<path d="M137.861 5.01136V9.0309H136.835V2.34908H137.827V3.39311H137.914C138.07 3.0538 138.308 2.78119 138.627 2.57528C138.946 2.36648 139.358 2.26207 139.862 2.26207C140.315 2.26207 140.711 2.35488 141.05 2.54048C141.389 2.72319 141.653 3.0016 141.842 3.37571C142.03 3.74692 142.124 4.21674 142.124 4.78516V9.0309H141.098V4.85476C141.098 4.32984 140.962 3.92093 140.689 3.62802C140.416 3.33221 140.042 3.1843 139.567 3.1843C139.239 3.1843 138.946 3.25536 138.688 3.39746C138.433 3.53957 138.231 3.74692 138.083 4.01953C137.935 4.29214 137.861 4.62275 137.861 5.01136Z" fill="white"/>
<path d="M147.433 11.6758C146.937 11.6758 146.51 11.612 146.154 11.4844C145.797 11.3597 145.5 11.1944 145.262 10.9885C145.027 10.7855 144.84 10.5679 144.701 10.3359L145.518 9.76172C145.611 9.88352 145.729 10.0227 145.871 10.1793C146.013 10.3388 146.207 10.4766 146.454 10.5926C146.703 10.7115 147.029 10.771 147.433 10.771C147.972 10.771 148.417 10.6404 148.768 10.3794C149.119 10.1184 149.294 9.70952 149.294 9.1527V7.79545H149.207C149.132 7.91726 149.025 8.06806 148.886 8.24787C148.749 8.42478 148.552 8.58283 148.294 8.72204C148.039 8.85834 147.694 8.92649 147.259 8.92649C146.719 8.92649 146.235 8.79889 145.806 8.54368C145.379 8.28847 145.041 7.91726 144.792 7.43004C144.546 6.94283 144.422 6.35121 144.422 5.65518C144.422 4.97076 144.543 4.37479 144.783 3.86728C145.024 3.35686 145.359 2.96245 145.788 2.68404C146.217 2.40273 146.713 2.26207 147.276 2.26207C147.711 2.26207 148.056 2.33458 148.311 2.47958C148.569 2.62169 148.767 2.78409 148.903 2.9668C149.042 3.1466 149.149 3.29451 149.225 3.41051H149.329V2.34908H150.321V9.2223C150.321 9.79652 150.191 10.2634 149.93 10.623C149.671 10.9856 149.323 11.2509 148.886 11.4191C148.45 11.5902 147.966 11.6758 147.433 11.6758ZM147.398 8.00426C147.81 8.00426 148.158 7.91001 148.442 7.7215C148.726 7.533 148.942 7.26184 149.09 6.90803C149.238 6.55421 149.312 6.1308 149.312 5.63778C149.312 5.15637 149.239 4.7315 149.094 4.36319C148.949 3.99488 148.735 3.70632 148.45 3.49751C148.166 3.28871 147.815 3.1843 147.398 3.1843C146.963 3.1843 146.6 3.29451 146.31 3.51491C146.023 3.73532 145.807 4.03113 145.662 4.40234C145.52 4.77356 145.449 5.18537 145.449 5.63778C145.449 6.1018 145.521 6.51216 145.666 6.86887C145.814 7.22269 146.032 7.50109 146.319 7.7041C146.609 7.90421 146.969 8.00426 147.398 8.00426Z" fill="white"/>
</svg>
