<svg width="80" height="50" viewBox="0 0 80 50" fill="none" xmlns="http://www.w3.org/2000/svg">
<path d="M23.8298 0.0314174C12.6444 3.63492 0 12.2833 0 29.0997C0 41.5918 8.02432 50 19.2097 50C28.4498 50 34.0426 43.7539 34.0426 36.5469C34.0426 29.5801 29.4225 25.9766 20.4255 24.0548C12.8875 22.6134 7.53799 21.4122 7.53799 16.1271C7.53799 9.64075 16.535 4.11538 24.5593 1.47281C25.5319 0.992354 25.0456 -0.208827 23.8298 0.0314174ZM69.7872 0.0314174C58.6018 3.63492 45.9574 11.5626 45.9574 28.379C45.9574 40.8711 53.9818 50 65.1672 50C74.4073 50 80 43.7539 80 36.5469C80 29.5801 75.3799 25.9766 66.383 24.0548C58.845 22.6134 53.4954 21.4122 53.4954 16.1271C53.4954 9.64075 62.4924 4.11538 70.5167 1.47281C71.4894 0.992354 71.003 -0.208827 69.7872 0.0314174Z" fill="white"/>
</svg>
