<svg width="16" height="16" viewBox="0 0 16 16" fill="none" xmlns="http://www.w3.org/2000/svg">
<path d="M13 4L13.6144 4.4301L14.4405 3.25H13V4ZM3 4V3.25H1.55951L2.38558 4.4301L3 4ZM6.5 9H7.25V8.76358L7.11442 8.5699L6.5 9ZM6.5 12H5.75V12.4014L6.08397 12.624L6.5 12ZM9.5 14L9.08397 14.624C9.31412 14.7775 9.61003 14.7918 9.85389 14.6613C10.0978 14.5307 10.25 14.2766 10.25 14H9.5ZM9.5 9L8.88558 8.5699L8.75 8.76358V9H9.5ZM13 3.25H3V4.75H13V3.25ZM2.38558 4.4301L5.88558 9.4301L7.11442 8.5699L3.61442 3.5699L2.38558 4.4301ZM5.75 9V12H7.25V9H5.75ZM6.08397 12.624L9.08397 14.624L9.91603 13.376L6.91603 11.376L6.08397 12.624ZM10.25 14V9H8.75V14H10.25ZM10.1144 9.4301L13.6144 4.4301L12.3856 3.5699L8.88558 8.5699L10.1144 9.4301Z" fill="black"/>
</svg>
