<svg width="16" height="16" viewBox="0 0 16 16" fill="none" xmlns="http://www.w3.org/2000/svg">
  <defs>
    <g id="arrow-right">
      <path d="M9 13L12.9393 9.06066C13.5251 8.47487 13.5251 7.52513 12.9393 6.93934L9 3" stroke-width="1.5"/>
      <path d="M2 8H13" stroke-width="1.5"/>
    </g>
    <g id="filter">
      <svg width="32" height="32" viewBox="0 0 32 32" fill="none" xmlns="http://www.w3.org/2000/svg">
        <path d="M26 8L26.7809 8.6247L28.0806 7H26V8ZM6 8V7H3.91938L5.21913 8.6247L6 8ZM14 18H15V17.6492L14.7809 17.3753L14 18ZM14 24H13V24.618L13.5528 24.8944L14 24ZM18 26L17.5528 26.8944C17.8628 27.0494 18.2309 27.0329 18.5257 26.8507C18.8205 26.6684 19 26.3466 19 26H18ZM18 18L17.2191 17.3753L17 17.6492V18H18ZM26 7H6V9H26V7ZM5.21913 8.6247L13.2191 18.6247L14.7809 17.3753L6.78087 7.3753L5.21913 8.6247ZM13 18V24H15V18H13ZM13.5528 24.8944L17.5528 26.8944L18.4472 25.1056L14.4472 23.1056L13.5528 24.8944ZM19 26V18H17V26H19ZM18.7809 18.6247L26.7809 8.6247L25.2191 7.3753L17.2191 17.3753L18.7809 18.6247Z" fill="black"/>
      </svg>
    </g>
    <g id="chevron-down-s">
      <svg width="16" height="16" viewBox="0 0 16 16" fill="none" xmlns="http://www.w3.org/2000/svg">
        <path d="M3 6L6.93934 9.93934C7.52512 10.5251 8.47487 10.5251 9.06066 9.93934L13 6" stroke="white" stroke-width="1.5"/>
      </svg>
    </g>  
    <g id="mail">
      <path d="M2 4.5L6.93934 9.43934C7.52513 10.0251 8.47487 10.0251 9.06066 9.43934L14 4.5" stroke="white" stroke-width="1.5"/>
      <rect x="1.75" y="4.25" width="12.5" height="8.5" rx="1.25" stroke="white" stroke-width="1.5"/>
    </g>
  </defs>
</svg>
