<svg width="16" height="16" viewBox="0 0 16 16" fill="none" xmlns="http://www.w3.org/2000/svg">
<path d="M6.89453 8.55318C7.37514 9.19633 8.11113 9.59882 8.91146 9.6562C9.7118 9.71357 10.4976 9.42017 11.0648 8.85214L12.7241 7.19124C13.7721 6.10507 13.7572 4.37855 12.6904 3.31078C11.6237 2.243 9.89887 2.228 8.81376 3.27706L7.86244 4.22377" stroke="black" stroke-width="1.5" stroke-linejoin="round"/>
<path d="M9.10588 7.44604C8.62527 6.80289 7.88929 6.40039 7.08895 6.34302C6.28861 6.28564 5.50284 6.57905 4.93557 7.14708L3.2763 8.80798C2.22827 9.89414 2.24325 11.6207 3.30998 12.6884C4.37671 13.7562 6.10155 13.7712 7.18665 12.7222L8.13244 11.7754" stroke="black" stroke-width="1.5" stroke-linejoin="round"/>
</svg>
