<svg width="32" height="32" viewBox="0 0 32 32" fill="none" xmlns="http://www.w3.org/2000/svg">
<path d="M13.7891 17.1064C14.7503 18.3927 16.2223 19.1977 17.8229 19.3125C19.4236 19.4272 20.9952 18.8404 22.1297 17.7043L25.4483 14.3825C27.5443 12.2102 27.5144 8.75712 25.3809 6.62156C23.2474 4.486 19.7978 4.456 17.6275 6.55412L15.7249 8.44755" stroke="black" stroke-width="2" stroke-linecap="square" stroke-linejoin="round"/>
<path d="M18.2118 14.896C17.2506 13.6097 15.7786 12.8047 14.1779 12.6899C12.5773 12.5752 11.0057 13.162 9.87116 14.2981L6.5526 17.6199C4.45653 19.7922 4.48651 23.2453 6.61998 25.3808C8.75344 27.5164 12.2031 27.5464 14.3733 25.4483L16.2649 23.5548" stroke="black" stroke-width="2" stroke-linecap="square" stroke-linejoin="round"/>
</svg>
