<svg width="32" height="32" viewBox="0 0 32 32" fill="none" xmlns="http://www.w3.org/2000/svg">
<path fill-rule="evenodd" clip-rule="evenodd" d="M6 4C4.89543 4 4 4.89543 4 6V26C4 27.1046 4.89543 28 6 28H26C27.1046 28 28 27.1046 28 26V6C28 4.89543 27.1046 4 26 4H6ZM7.54823 24.3653H11.0961V12.9367H7.54823V24.3653ZM9.32133 11.3782C8.17351 11.3782 7.23438 10.4432 7.23438 9.30032C7.23438 8.15747 8.17351 7.2224 9.32133 7.2224C10.4692 7.2224 11.4083 8.15747 11.4083 9.30032C11.4083 10.4432 10.4692 11.3782 9.32133 11.3782ZM20.9043 24.3644H24.4522V18.0268C24.4522 15.0138 23.8261 12.6242 20.1739 12.6242C18.5043 12.6242 17.3565 13.5593 16.8348 14.4943V12.9359H13.3913V24.3644H16.9391V18.7541C16.9391 17.2995 17.1478 15.845 19.0261 15.845C20.9043 15.845 20.9043 17.5073 20.9043 18.858V24.3644Z" fill="black"/>
</svg>
