<svg width="16" height="16" viewBox="0 0 16 16" fill="none" xmlns="http://www.w3.org/2000/svg">
<path fill-rule="evenodd" clip-rule="evenodd" d="M3.5 2C2.67157 2 2 2.67157 2 3.5V12.5C2 13.3284 2.67157 14 3.5 14H12.5C13.3284 14 14 13.3284 14 12.5V3.5C14 2.67157 13.3284 2 12.5 2H3.5ZM3.77417 12.1826H5.54808V6.46835H3.77417V12.1826ZM4.66067 5.68913C4.08675 5.68913 3.61719 5.2216 3.61719 4.65017C3.61719 4.07874 4.08675 3.61121 4.66067 3.61121C5.23458 3.61121 5.70414 4.07874 5.70414 4.65017C5.70414 5.2216 5.23458 5.68913 4.66067 5.68913ZM10.4521 12.1822H12.226V9.0134C12.226 7.50691 11.9129 6.3121 10.0869 6.3121C9.25208 6.3121 8.67817 6.77964 8.4173 7.24717V6.46795H6.69556V12.1822H8.46947V9.37704C8.46947 8.64977 8.57382 7.92249 9.51295 7.92249C10.4521 7.92249 10.4521 8.75366 10.4521 9.42899V12.1822Z" fill="black"/>
</svg>
