<svg width="241" height="502" viewBox="0 0 241 502" fill="none" xmlns="http://www.w3.org/2000/svg">
<ellipse cx="10.7161" cy="251.007" rx="0.834309" ry="0.834309" transform="rotate(-90 10.7161 251.007)" fill="#181818"/>
<ellipse cx="10.7161" cy="130.867" rx="0.834309" ry="0.834309" transform="rotate(-90 10.7161 130.867)" fill="#181818"/>
<ellipse cx="10.7161" cy="371.148" rx="0.834309" ry="0.834309" transform="rotate(-90 10.7161 371.148)" fill="#181818"/>
<ellipse cx="10.7161" cy="491.289" rx="0.834309" ry="0.834309" transform="rotate(-90 10.7161 491.289)" fill="#181818"/>
<ellipse cx="10.7161" cy="291.054" rx="0.834309" ry="0.834309" transform="rotate(-90 10.7161 291.054)" fill="#181818"/>
<ellipse cx="10.7161" cy="170.914" rx="0.834309" ry="0.834309" transform="rotate(-90 10.7161 170.914)" fill="#181818"/>
<ellipse cx="10.7161" cy="411.195" rx="0.834309" ry="0.834309" transform="rotate(-90 10.7161 411.195)" fill="#181818"/>
<ellipse cx="10.7161" cy="90.82" rx="0.834309" ry="0.834309" transform="rotate(-90 10.7161 90.82)" fill="#181818"/>
<ellipse cx="10.7161" cy="331.101" rx="0.834309" ry="0.834309" transform="rotate(-90 10.7161 331.101)" fill="#181818"/>
<ellipse cx="10.7161" cy="210.961" rx="0.834309" ry="0.834309" transform="rotate(-90 10.7161 210.961)" fill="#181818"/>
<ellipse cx="10.7161" cy="451.242" rx="0.834309" ry="0.834309" transform="rotate(-90 10.7161 451.242)" fill="#181818"/>
<ellipse cx="10.7161" cy="271.031" rx="0.834309" ry="0.834309" transform="rotate(-90 10.7161 271.031)" fill="#181818"/>
<ellipse cx="10.7161" cy="150.89" rx="0.834309" ry="0.834309" transform="rotate(-90 10.7161 150.89)" fill="#181818"/>
<ellipse cx="10.7161" cy="391.172" rx="0.834309" ry="0.834309" transform="rotate(-90 10.7161 391.172)" fill="#181818"/>
<ellipse cx="10.7161" cy="70.7965" rx="0.834309" ry="0.834309" transform="rotate(-90 10.7161 70.7965)" fill="#181818"/>
<ellipse cx="10.7161" cy="311.078" rx="0.834309" ry="0.834309" transform="rotate(-90 10.7161 311.078)" fill="#181818"/>
<ellipse cx="10.7161" cy="190.937" rx="0.834309" ry="0.834309" transform="rotate(-90 10.7161 190.937)" fill="#181818"/>
<ellipse cx="10.7161" cy="431.218" rx="0.834309" ry="0.834309" transform="rotate(-90 10.7161 431.218)" fill="#181818"/>
<ellipse cx="10.7161" cy="110.843" rx="0.834309" ry="0.834309" transform="rotate(-90 10.7161 110.843)" fill="#181818"/>
<ellipse cx="10.7161" cy="351.125" rx="0.834309" ry="0.834309" transform="rotate(-90 10.7161 351.125)" fill="#181818"/>
<ellipse cx="10.7161" cy="230.984" rx="0.834309" ry="0.834309" transform="rotate(-90 10.7161 230.984)" fill="#181818"/>
<ellipse cx="10.7161" cy="471.265" rx="0.834309" ry="0.834309" transform="rotate(-90 10.7161 471.265)" fill="#181818"/>
<ellipse cx="70.7865" cy="251.007" rx="0.834309" ry="0.834309" transform="rotate(-90 70.7865 251.007)" fill="#181818"/>
<ellipse cx="70.7865" cy="130.867" rx="0.834309" ry="0.834309" transform="rotate(-90 70.7865 130.867)" fill="#181818"/>
<ellipse cx="70.7865" cy="371.148" rx="0.834309" ry="0.834309" transform="rotate(-90 70.7865 371.148)" fill="#181818"/>
<ellipse cx="70.7865" cy="291.054" rx="0.834309" ry="0.834309" transform="rotate(-90 70.7865 291.054)" fill="#181818"/>
<ellipse cx="70.7865" cy="170.914" rx="0.834309" ry="0.834309" transform="rotate(-90 70.7865 170.914)" fill="#181818"/>
<ellipse cx="70.7865" cy="411.195" rx="0.834309" ry="0.834309" transform="rotate(-90 70.7865 411.195)" fill="#181818"/>
<ellipse cx="70.7865" cy="90.82" rx="0.834309" ry="0.834309" transform="rotate(-90 70.7865 90.82)" fill="#181818"/>
<ellipse cx="70.7865" cy="331.101" rx="0.834309" ry="0.834309" transform="rotate(-90 70.7865 331.101)" fill="#181818"/>
<ellipse cx="70.7865" cy="210.961" rx="0.834309" ry="0.834309" transform="rotate(-90 70.7865 210.961)" fill="#181818"/>
<ellipse cx="70.7865" cy="451.242" rx="0.834309" ry="0.834309" transform="rotate(-90 70.7865 451.242)" fill="#181818"/>
<ellipse cx="70.7865" cy="271.031" rx="0.834309" ry="0.834309" transform="rotate(-90 70.7865 271.031)" fill="#181818"/>
<ellipse cx="70.7865" cy="150.89" rx="0.834309" ry="0.834309" transform="rotate(-90 70.7865 150.89)" fill="#181818"/>
<ellipse cx="70.7865" cy="391.172" rx="0.834309" ry="0.834309" transform="rotate(-90 70.7865 391.172)" fill="#181818"/>
<ellipse cx="70.7865" cy="311.078" rx="0.834309" ry="0.834309" transform="rotate(-90 70.7865 311.078)" fill="#181818"/>
<ellipse cx="70.7865" cy="190.937" rx="0.834309" ry="0.834309" transform="rotate(-90 70.7865 190.937)" fill="#181818"/>
<ellipse cx="70.7865" cy="431.218" rx="0.834309" ry="0.834309" transform="rotate(-90 70.7865 431.218)" fill="#181818"/>
<ellipse cx="70.7865" cy="110.843" rx="0.834309" ry="0.834309" transform="rotate(-90 70.7865 110.843)" fill="#181818"/>
<ellipse cx="70.7865" cy="351.125" rx="0.834309" ry="0.834309" transform="rotate(-90 70.7865 351.125)" fill="#181818"/>
<ellipse cx="70.7865" cy="230.984" rx="0.834309" ry="0.834309" transform="rotate(-90 70.7865 230.984)" fill="#181818"/>
<ellipse cx="70.7865" cy="471.265" rx="0.834309" ry="0.834309" transform="rotate(-90 70.7865 471.265)" fill="#181818"/>
<ellipse cx="130.857" cy="251.007" rx="0.834309" ry="0.834309" transform="rotate(-90 130.857 251.007)" fill="#181818"/>
<ellipse cx="130.857" cy="130.867" rx="0.834309" ry="0.834309" transform="rotate(-90 130.857 130.867)" fill="#181818"/>
<ellipse cx="130.857" cy="371.148" rx="0.834309" ry="0.834309" transform="rotate(-90 130.857 371.148)" fill="#181818"/>
<ellipse cx="130.857" cy="291.054" rx="0.834309" ry="0.834309" transform="rotate(-90 130.857 291.054)" fill="#181818"/>
<ellipse cx="130.857" cy="170.914" rx="0.834309" ry="0.834309" transform="rotate(-90 130.857 170.914)" fill="#181818"/>
<ellipse cx="130.857" cy="411.195" rx="0.834309" ry="0.834309" transform="rotate(-90 130.857 411.195)" fill="#181818"/>
<ellipse cx="130.857" cy="331.101" rx="0.834309" ry="0.834309" transform="rotate(-90 130.857 331.101)" fill="#181818"/>
<ellipse cx="130.857" cy="210.961" rx="0.834309" ry="0.834309" transform="rotate(-90 130.857 210.961)" fill="#181818"/>
<ellipse cx="130.857" cy="271.031" rx="0.834309" ry="0.834309" transform="rotate(-90 130.857 271.031)" fill="#181818"/>
<ellipse cx="130.857" cy="150.89" rx="0.834309" ry="0.834309" transform="rotate(-90 130.857 150.89)" fill="#181818"/>
<ellipse cx="130.857" cy="391.172" rx="0.834309" ry="0.834309" transform="rotate(-90 130.857 391.172)" fill="#181818"/>
<ellipse cx="130.857" cy="311.078" rx="0.834309" ry="0.834309" transform="rotate(-90 130.857 311.078)" fill="#181818"/>
<ellipse cx="130.857" cy="190.937" rx="0.834309" ry="0.834309" transform="rotate(-90 130.857 190.937)" fill="#181818"/>
<ellipse cx="130.857" cy="431.218" rx="0.834309" ry="0.834309" transform="rotate(-90 130.857 431.218)" fill="#181818"/>
<ellipse cx="130.857" cy="110.843" rx="0.834309" ry="0.834309" transform="rotate(-90 130.857 110.843)" fill="#181818"/>
<ellipse cx="130.857" cy="351.125" rx="0.834309" ry="0.834309" transform="rotate(-90 130.857 351.125)" fill="#181818"/>
<ellipse cx="130.857" cy="230.984" rx="0.834309" ry="0.834309" transform="rotate(-90 130.857 230.984)" fill="#181818"/>
<ellipse cx="190.927" cy="251.007" rx="0.834309" ry="0.834309" transform="rotate(-90 190.927 251.007)" fill="#181818"/>
<ellipse cx="190.927" cy="291.054" rx="0.834309" ry="0.834309" transform="rotate(-90 190.927 291.054)" fill="#181818"/>
<ellipse cx="190.927" cy="331.101" rx="0.834309" ry="0.834309" transform="rotate(-90 190.927 331.101)" fill="#181818"/>
<ellipse cx="190.927" cy="210.961" rx="0.834309" ry="0.834309" transform="rotate(-90 190.927 210.961)" fill="#181818"/>
<ellipse cx="190.927" cy="271.031" rx="0.834309" ry="0.834309" transform="rotate(-90 190.927 271.031)" fill="#181818"/>
<ellipse cx="190.927" cy="311.078" rx="0.834309" ry="0.834309" transform="rotate(-90 190.927 311.078)" fill="#181818"/>
<ellipse cx="190.927" cy="190.937" rx="0.834309" ry="0.834309" transform="rotate(-90 190.927 190.937)" fill="#181818"/>
<ellipse cx="190.927" cy="351.125" rx="0.834309" ry="0.834309" transform="rotate(-90 190.927 351.125)" fill="#181818"/>
<ellipse cx="190.927" cy="230.984" rx="0.834309" ry="0.834309" transform="rotate(-90 190.927 230.984)" fill="#181818"/>
<ellipse cx="30.7396" cy="251.007" rx="0.834309" ry="0.834309" transform="rotate(-90 30.7396 251.007)" fill="#181818"/>
<ellipse cx="30.7396" cy="130.867" rx="0.834309" ry="0.834309" transform="rotate(-90 30.7396 130.867)" fill="#181818"/>
<ellipse cx="30.7396" cy="371.148" rx="0.834309" ry="0.834309" transform="rotate(-90 30.7396 371.148)" fill="#181818"/>
<ellipse cx="30.7396" cy="291.054" rx="0.834309" ry="0.834309" transform="rotate(-90 30.7396 291.054)" fill="#181818"/>
<ellipse cx="30.7396" cy="170.914" rx="0.834309" ry="0.834309" transform="rotate(-90 30.7396 170.914)" fill="#181818"/>
<ellipse cx="30.7396" cy="411.195" rx="0.834309" ry="0.834309" transform="rotate(-90 30.7396 411.195)" fill="#181818"/>
<ellipse cx="30.7396" cy="90.82" rx="0.834309" ry="0.834309" transform="rotate(-90 30.7396 90.82)" fill="#181818"/>
<ellipse cx="30.7396" cy="331.101" rx="0.834309" ry="0.834309" transform="rotate(-90 30.7396 331.101)" fill="#181818"/>
<ellipse cx="30.7396" cy="210.961" rx="0.834309" ry="0.834309" transform="rotate(-90 30.7396 210.961)" fill="#181818"/>
<ellipse cx="30.7396" cy="451.242" rx="0.834309" ry="0.834309" transform="rotate(-90 30.7396 451.242)" fill="#181818"/>
<ellipse cx="30.7396" cy="271.031" rx="0.834309" ry="0.834309" transform="rotate(-90 30.7396 271.031)" fill="#181818"/>
<ellipse cx="30.7396" cy="150.89" rx="0.834309" ry="0.834309" transform="rotate(-90 30.7396 150.89)" fill="#181818"/>
<ellipse cx="30.7396" cy="391.172" rx="0.834309" ry="0.834309" transform="rotate(-90 30.7396 391.172)" fill="#181818"/>
<ellipse cx="30.7396" cy="70.7965" rx="0.834309" ry="0.834309" transform="rotate(-90 30.7396 70.7965)" fill="#181818"/>
<ellipse cx="30.7396" cy="311.078" rx="0.834309" ry="0.834309" transform="rotate(-90 30.7396 311.078)" fill="#181818"/>
<ellipse cx="30.7396" cy="190.937" rx="0.834309" ry="0.834309" transform="rotate(-90 30.7396 190.937)" fill="#181818"/>
<ellipse cx="30.7396" cy="431.218" rx="0.834309" ry="0.834309" transform="rotate(-90 30.7396 431.218)" fill="#181818"/>
<ellipse cx="30.7396" cy="110.843" rx="0.834309" ry="0.834309" transform="rotate(-90 30.7396 110.843)" fill="#181818"/>
<ellipse cx="30.7396" cy="351.125" rx="0.834309" ry="0.834309" transform="rotate(-90 30.7396 351.125)" fill="#181818"/>
<ellipse cx="30.7396" cy="230.984" rx="0.834309" ry="0.834309" transform="rotate(-90 30.7396 230.984)" fill="#181818"/>
<ellipse cx="30.7396" cy="471.265" rx="0.834309" ry="0.834309" transform="rotate(-90 30.7396 471.265)" fill="#181818"/>
<ellipse cx="90.8099" cy="251.007" rx="0.834309" ry="0.834309" transform="rotate(-90 90.8099 251.007)" fill="#181818"/>
<ellipse cx="90.8099" cy="130.867" rx="0.834309" ry="0.834309" transform="rotate(-90 90.8099 130.867)" fill="#181818"/>
<ellipse cx="90.8099" cy="371.148" rx="0.834309" ry="0.834309" transform="rotate(-90 90.8099 371.148)" fill="#181818"/>
<ellipse cx="90.8099" cy="291.054" rx="0.834309" ry="0.834309" transform="rotate(-90 90.8099 291.054)" fill="#181818"/>
<ellipse cx="90.8099" cy="170.914" rx="0.834309" ry="0.834309" transform="rotate(-90 90.8099 170.914)" fill="#181818"/>
<ellipse cx="90.8099" cy="411.195" rx="0.834309" ry="0.834309" transform="rotate(-90 90.8099 411.195)" fill="#181818"/>
<ellipse cx="90.8099" cy="90.82" rx="0.834309" ry="0.834309" transform="rotate(-90 90.8099 90.82)" fill="#181818"/>
<ellipse cx="90.8099" cy="331.101" rx="0.834309" ry="0.834309" transform="rotate(-90 90.8099 331.101)" fill="#181818"/>
<ellipse cx="90.8099" cy="210.961" rx="0.834309" ry="0.834309" transform="rotate(-90 90.8099 210.961)" fill="#181818"/>
<ellipse cx="90.8099" cy="451.242" rx="0.834309" ry="0.834309" transform="rotate(-90 90.8099 451.242)" fill="#181818"/>
<ellipse cx="90.8099" cy="271.031" rx="0.834309" ry="0.834309" transform="rotate(-90 90.8099 271.031)" fill="#181818"/>
<ellipse cx="90.8099" cy="150.89" rx="0.834309" ry="0.834309" transform="rotate(-90 90.8099 150.89)" fill="#181818"/>
<ellipse cx="90.8099" cy="391.172" rx="0.834309" ry="0.834309" transform="rotate(-90 90.8099 391.172)" fill="#181818"/>
<ellipse cx="90.8099" cy="311.078" rx="0.834309" ry="0.834309" transform="rotate(-90 90.8099 311.078)" fill="#181818"/>
<ellipse cx="90.8099" cy="190.937" rx="0.834309" ry="0.834309" transform="rotate(-90 90.8099 190.937)" fill="#181818"/>
<ellipse cx="90.8099" cy="431.218" rx="0.834309" ry="0.834309" transform="rotate(-90 90.8099 431.218)" fill="#181818"/>
<ellipse cx="90.8099" cy="110.843" rx="0.834309" ry="0.834309" transform="rotate(-90 90.8099 110.843)" fill="#181818"/>
<ellipse cx="90.8099" cy="351.125" rx="0.834309" ry="0.834309" transform="rotate(-90 90.8099 351.125)" fill="#181818"/>
<ellipse cx="90.8099" cy="230.984" rx="0.834309" ry="0.834309" transform="rotate(-90 90.8099 230.984)" fill="#181818"/>
<ellipse cx="150.88" cy="251.007" rx="0.834309" ry="0.834309" transform="rotate(-90 150.88 251.007)" fill="#181818"/>
<ellipse cx="150.88" cy="130.867" rx="0.834309" ry="0.834309" transform="rotate(-90 150.88 130.867)" fill="#181818"/>
<ellipse cx="150.88" cy="371.148" rx="0.834309" ry="0.834309" transform="rotate(-90 150.88 371.148)" fill="#181818"/>
<ellipse cx="150.88" cy="291.054" rx="0.834309" ry="0.834309" transform="rotate(-90 150.88 291.054)" fill="#181818"/>
<ellipse cx="150.88" cy="170.914" rx="0.834309" ry="0.834309" transform="rotate(-90 150.88 170.914)" fill="#181818"/>
<ellipse cx="150.88" cy="411.195" rx="0.834309" ry="0.834309" transform="rotate(-90 150.88 411.195)" fill="#181818"/>
<ellipse cx="150.88" cy="331.101" rx="0.834309" ry="0.834309" transform="rotate(-90 150.88 331.101)" fill="#181818"/>
<ellipse cx="150.88" cy="210.961" rx="0.834309" ry="0.834309" transform="rotate(-90 150.88 210.961)" fill="#181818"/>
<ellipse cx="150.88" cy="271.031" rx="0.834309" ry="0.834309" transform="rotate(-90 150.88 271.031)" fill="#181818"/>
<ellipse cx="150.88" cy="150.89" rx="0.834309" ry="0.834309" transform="rotate(-90 150.88 150.89)" fill="#181818"/>
<ellipse cx="150.88" cy="391.172" rx="0.834309" ry="0.834309" transform="rotate(-90 150.88 391.172)" fill="#181818"/>
<ellipse cx="150.88" cy="311.078" rx="0.834309" ry="0.834309" transform="rotate(-90 150.88 311.078)" fill="#181818"/>
<ellipse cx="150.88" cy="190.937" rx="0.834309" ry="0.834309" transform="rotate(-90 150.88 190.937)" fill="#181818"/>
<ellipse cx="150.88" cy="351.125" rx="0.834309" ry="0.834309" transform="rotate(-90 150.88 351.125)" fill="#181818"/>
<ellipse cx="150.88" cy="230.984" rx="0.834309" ry="0.834309" transform="rotate(-90 150.88 230.984)" fill="#181818"/>
<ellipse cx="210.951" cy="251.007" rx="0.834309" ry="0.834309" transform="rotate(-90 210.951 251.007)" fill="#181818"/>
<ellipse cx="210.951" cy="291.054" rx="0.834309" ry="0.834309" transform="rotate(-90 210.951 291.054)" fill="#181818"/>
<ellipse cx="210.951" cy="271.031" rx="0.834309" ry="0.834309" transform="rotate(-90 210.951 271.031)" fill="#181818"/>
<ellipse cx="210.951" cy="230.984" rx="0.834309" ry="0.834309" transform="rotate(-90 210.951 230.984)" fill="#181818"/>
<ellipse cx="50.763" cy="251.007" rx="0.834309" ry="0.834309" transform="rotate(-90 50.763 251.007)" fill="#181818"/>
<ellipse cx="50.763" cy="130.867" rx="0.834309" ry="0.834309" transform="rotate(-90 50.763 130.867)" fill="#181818"/>
<ellipse cx="50.763" cy="371.148" rx="0.834309" ry="0.834309" transform="rotate(-90 50.763 371.148)" fill="#181818"/>
<ellipse cx="50.763" cy="291.054" rx="0.834309" ry="0.834309" transform="rotate(-90 50.763 291.054)" fill="#181818"/>
<ellipse cx="50.763" cy="170.914" rx="0.834309" ry="0.834309" transform="rotate(-90 50.763 170.914)" fill="#181818"/>
<ellipse cx="50.763" cy="411.195" rx="0.834309" ry="0.834309" transform="rotate(-90 50.763 411.195)" fill="#181818"/>
<ellipse cx="50.763" cy="90.82" rx="0.834309" ry="0.834309" transform="rotate(-90 50.763 90.82)" fill="#181818"/>
<ellipse cx="50.763" cy="331.101" rx="0.834309" ry="0.834309" transform="rotate(-90 50.763 331.101)" fill="#181818"/>
<ellipse cx="50.763" cy="210.961" rx="0.834309" ry="0.834309" transform="rotate(-90 50.763 210.961)" fill="#181818"/>
<ellipse cx="50.763" cy="451.242" rx="0.834309" ry="0.834309" transform="rotate(-90 50.763 451.242)" fill="#181818"/>
<ellipse cx="50.763" cy="271.031" rx="0.834309" ry="0.834309" transform="rotate(-90 50.763 271.031)" fill="#181818"/>
<ellipse cx="50.763" cy="150.89" rx="0.834309" ry="0.834309" transform="rotate(-90 50.763 150.89)" fill="#181818"/>
<ellipse cx="50.763" cy="391.172" rx="0.834309" ry="0.834309" transform="rotate(-90 50.763 391.172)" fill="#181818"/>
<ellipse cx="50.763" cy="311.078" rx="0.834309" ry="0.834309" transform="rotate(-90 50.763 311.078)" fill="#181818"/>
<ellipse cx="50.763" cy="190.937" rx="0.834309" ry="0.834309" transform="rotate(-90 50.763 190.937)" fill="#181818"/>
<ellipse cx="50.763" cy="431.218" rx="0.834309" ry="0.834309" transform="rotate(-90 50.763 431.218)" fill="#181818"/>
<ellipse cx="50.763" cy="110.843" rx="0.834309" ry="0.834309" transform="rotate(-90 50.763 110.843)" fill="#181818"/>
<ellipse cx="50.763" cy="351.125" rx="0.834309" ry="0.834309" transform="rotate(-90 50.763 351.125)" fill="#181818"/>
<ellipse cx="50.763" cy="230.984" rx="0.834309" ry="0.834309" transform="rotate(-90 50.763 230.984)" fill="#181818"/>
<ellipse cx="50.763" cy="471.265" rx="0.834309" ry="0.834309" transform="rotate(-90 50.763 471.265)" fill="#181818"/>
<ellipse cx="110.833" cy="251.007" rx="0.834309" ry="0.834309" transform="rotate(-90 110.833 251.007)" fill="#181818"/>
<ellipse cx="110.833" cy="130.867" rx="0.834309" ry="0.834309" transform="rotate(-90 110.833 130.867)" fill="#181818"/>
<ellipse cx="110.833" cy="371.148" rx="0.834309" ry="0.834309" transform="rotate(-90 110.833 371.148)" fill="#181818"/>
<ellipse cx="110.833" cy="291.054" rx="0.834309" ry="0.834309" transform="rotate(-90 110.833 291.054)" fill="#181818"/>
<ellipse cx="110.833" cy="170.914" rx="0.834309" ry="0.834309" transform="rotate(-90 110.833 170.914)" fill="#181818"/>
<ellipse cx="110.833" cy="411.195" rx="0.834309" ry="0.834309" transform="rotate(-90 110.833 411.195)" fill="#181818"/>
<ellipse cx="110.833" cy="331.101" rx="0.834309" ry="0.834309" transform="rotate(-90 110.833 331.101)" fill="#181818"/>
<ellipse cx="110.833" cy="210.961" rx="0.834309" ry="0.834309" transform="rotate(-90 110.833 210.961)" fill="#181818"/>
<ellipse cx="110.833" cy="271.031" rx="0.834309" ry="0.834309" transform="rotate(-90 110.833 271.031)" fill="#181818"/>
<ellipse cx="110.833" cy="150.89" rx="0.834309" ry="0.834309" transform="rotate(-90 110.833 150.89)" fill="#181818"/>
<ellipse cx="110.833" cy="391.172" rx="0.834309" ry="0.834309" transform="rotate(-90 110.833 391.172)" fill="#181818"/>
<ellipse cx="110.833" cy="311.078" rx="0.834309" ry="0.834309" transform="rotate(-90 110.833 311.078)" fill="#181818"/>
<ellipse cx="110.833" cy="190.937" rx="0.834309" ry="0.834309" transform="rotate(-90 110.833 190.937)" fill="#181818"/>
<ellipse cx="110.833" cy="431.218" rx="0.834309" ry="0.834309" transform="rotate(-90 110.833 431.218)" fill="#181818"/>
<ellipse cx="110.833" cy="110.843" rx="0.834309" ry="0.834309" transform="rotate(-90 110.833 110.843)" fill="#181818"/>
<ellipse cx="110.833" cy="351.125" rx="0.834309" ry="0.834309" transform="rotate(-90 110.833 351.125)" fill="#181818"/>
<ellipse cx="110.833" cy="230.984" rx="0.834309" ry="0.834309" transform="rotate(-90 110.833 230.984)" fill="#181818"/>
<ellipse cx="170.904" cy="251.007" rx="0.834309" ry="0.834309" transform="rotate(-90 170.904 251.007)" fill="#181818"/>
<ellipse cx="170.904" cy="371.148" rx="0.834309" ry="0.834309" transform="rotate(-90 170.904 371.148)" fill="#181818"/>
<ellipse cx="170.904" cy="291.054" rx="0.834309" ry="0.834309" transform="rotate(-90 170.904 291.054)" fill="#181818"/>
<ellipse cx="170.904" cy="170.914" rx="0.834309" ry="0.834309" transform="rotate(-90 170.904 170.914)" fill="#181818"/>
<ellipse cx="170.904" cy="331.101" rx="0.834309" ry="0.834309" transform="rotate(-90 170.904 331.101)" fill="#181818"/>
<ellipse cx="170.904" cy="210.961" rx="0.834309" ry="0.834309" transform="rotate(-90 170.904 210.961)" fill="#181818"/>
<ellipse cx="170.904" cy="271.031" rx="0.834309" ry="0.834309" transform="rotate(-90 170.904 271.031)" fill="#181818"/>
<ellipse cx="170.904" cy="150.89" rx="0.834309" ry="0.834309" transform="rotate(-90 170.904 150.89)" fill="#181818"/>
<ellipse cx="171.231" cy="311.078" rx="0.834309" ry="0.834309" transform="rotate(-90 171.231 311.078)" fill="#181818"/>
<ellipse cx="170.904" cy="190.937" rx="0.834309" ry="0.834309" transform="rotate(-90 170.904 190.937)" fill="#181818"/>
<ellipse cx="170.904" cy="351.125" rx="0.834309" ry="0.834309" transform="rotate(-90 170.904 351.125)" fill="#181818"/>
<ellipse cx="170.904" cy="230.984" rx="0.834309" ry="0.834309" transform="rotate(-90 170.904 230.984)" fill="#181818"/>
</svg>
