<svg width="78" height="80" viewBox="0 0 78 80" fill="none" xmlns="http://www.w3.org/2000/svg">
<path d="M39.4605 78.5267C60.4259 78.5267 77.4405 61.147 77.4405 39.6847C77.4405 18.2224 60.4259 0.842771 39.4605 0.842772C18.4951 0.842773 1.48047 18.2224 1.48047 39.6847C1.48047 61.147 18.4951 78.5267 39.4605 78.5267Z" stroke="#20A89C"/>
<mask id="mask0" style="mask-type:alpha" maskUnits="userSpaceOnUse" x="0" y="0" width="78" height="80">
<path d="M39.4594 0.843458C18.4941 0.84346 1.47945 18.2231 1.47946 39.6854C1.47946 61.1477 18.4941 78.5274 39.4595 78.5273C60.4248 78.5273 77.4395 61.1477 77.4394 39.6854C77.4394 18.2231 60.4248 0.843455 39.4594 0.843458Z" stroke="#8C7565"/>
</mask>
<g mask="url(#mask0)">
<rect x="101.027" y="39.6846" width="62.9471" height="61.568" transform="rotate(90 101.027 39.6846)" fill="#7C44F1"/>
</g>
</svg>
