<svg width="1920" height="543" viewBox="0 0 1920 543" fill="none" xmlns="http://www.w3.org/2000/svg">
<g style="mix-blend-mode:exclusion">
<path d="M179.115 239.739C179.115 277.176 165.09 310.653 137.039 340.17C109.348 369.327 76.2618 383.906 37.7816 383.906C-1.41782 383.906 -33.6045 371.307 -58.7785 346.109C-83.5928 320.912 -96 288.515 -96 248.918C-96 208.602 -82.3341 174.225 -55.0024 145.787C-27.6707 117.35 6.13437 103.131 46.4127 103.131C85.6122 103.131 117.439 115.73 141.894 140.928C166.708 166.125 179.115 199.062 179.115 239.739ZM-51.2263 239.739C-51.2263 277.536 -42.0558 310.113 -23.7148 337.47C-5.0141 364.468 18.5415 377.967 46.9522 377.967C75.0031 377.967 96.7606 366.628 112.225 343.95C127.689 320.912 135.421 289.055 135.421 248.378C135.421 210.581 126.25 177.824 107.909 150.107C89.5681 122.389 66.9115 108.53 39.9394 108.53C10.4499 108.53 -12.2067 119.869 -28.0303 142.547C-43.4943 164.865 -51.2263 197.263 -51.2263 239.739Z" fill="black"/>
<path d="M496.388 230.02C496.388 272.496 480.923 308.853 449.995 339.09C419.067 368.967 383.105 383.906 342.107 383.906C330.599 383.906 319.091 382.106 307.583 378.507C296.434 375.267 285.645 370.227 275.216 363.388V520.514H313.517C315.674 520.514 316.753 521.234 316.753 522.674C316.753 524.474 315.674 525.374 313.517 525.374C312.797 525.374 311.179 525.374 308.662 525.374C306.144 525.374 301.109 525.194 293.557 524.834C281.33 524.834 272.699 524.654 267.664 524.294C262.989 524.294 259.752 524.294 257.954 524.294C256.875 524.294 254.897 524.294 252.02 524.294C249.143 524.294 243.749 524.474 235.837 524.834C223.61 525.194 214.619 525.374 208.865 525.374C203.47 525.374 199.155 525.374 195.918 525.374C193.76 525.374 192.682 524.474 192.682 522.674C192.682 521.234 193.76 520.514 195.918 520.514C214.619 520.514 225.947 517.274 229.903 510.795C233.859 504.315 235.837 486.497 235.837 457.34V172.245C235.837 163.246 235.297 156.046 234.219 150.647C233.499 144.887 232.241 140.568 230.443 137.688C228.644 135.168 226.127 133.548 222.89 132.828C219.654 132.108 211.382 133.008 198.076 135.528C195.918 135.888 194.839 135.348 194.839 133.908C194.839 132.108 195.918 131.028 198.076 130.668C203.83 129.949 209.584 128.689 215.338 126.889C221.092 125.089 227.206 122.569 233.679 119.329C238.714 116.81 244.828 113.39 252.02 109.07C259.572 104.751 264.248 102.051 266.046 100.971C267.125 100.251 268.923 100.431 271.44 101.511C274.317 102.591 275.756 103.671 275.756 104.751C275.756 113.75 275.756 122.929 275.756 132.288C275.756 141.648 275.756 150.827 275.756 159.826C288.702 142.187 304.526 128.329 323.227 118.25C342.287 108.17 362.066 103.131 382.565 103.131C414.212 103.131 441.005 115.37 462.942 139.848C485.239 163.965 496.388 194.023 496.388 230.02ZM456.469 249.458C456.469 213.101 447.118 182.684 428.418 158.206C410.077 133.368 385.982 120.949 356.133 120.949C341.028 120.949 326.104 125.089 311.359 133.368C296.614 141.647 284.746 152.627 275.756 166.305V322.352C291.939 339.27 307.223 351.869 321.608 360.148C336.353 368.068 350.738 372.027 364.764 372.027C394.253 372.027 416.91 361.408 432.733 340.17C448.557 318.932 456.469 288.695 456.469 249.458Z" fill="black"/>
<path d="M757.73 358.528C744.784 367.168 731.477 373.647 717.812 377.967C704.505 381.926 690.66 383.906 676.274 383.906C635.996 383.906 603.27 371.847 578.096 347.729C553.282 323.611 540.875 292.474 540.875 254.318C540.875 235.599 544.831 217.241 552.742 199.242C560.654 180.884 571.982 164.326 586.727 149.567C601.112 134.808 617.475 123.469 635.816 115.55C654.157 107.271 672.498 103.131 690.839 103.131C704.146 103.131 716.193 104.571 726.982 107.451C737.771 109.97 747.121 113.93 755.033 119.329C765.462 126.169 773.374 134.808 778.768 145.247C784.163 155.686 786.141 165.945 784.702 176.024C783.983 181.784 781.825 186.104 778.229 188.983C774.633 191.503 769.238 192.763 762.046 192.763H578.096C576.658 198.882 575.399 205.542 574.32 212.741C573.601 219.581 573.241 226.78 573.241 234.339C573.241 267.456 585.828 295.534 611.002 318.572C636.176 341.25 667.104 352.589 703.786 352.589C733.635 352.589 759.528 344.13 781.466 327.211C803.403 310.293 822.643 283.835 839.186 247.838C840.625 244.598 841.883 243.339 842.962 244.058C844.401 244.418 844.401 246.038 842.962 248.918C832.893 272.676 820.485 294.094 805.741 313.172C790.996 331.891 774.992 347.009 757.73 358.528ZM737.771 164.146C737.771 151.187 731.837 139.848 719.969 130.129C708.461 120.049 693.716 115.01 675.735 115.01C651.28 115.01 630.602 121.489 613.699 134.448C597.156 147.047 585.648 165.045 579.175 188.443C591.402 188.443 603.45 188.443 615.318 188.443C627.545 188.083 643.548 187.723 663.328 187.363C677.353 187.003 687.423 186.824 693.537 186.824C700.01 186.464 705.944 186.284 711.338 186.284C714.935 186.284 719.25 185.744 724.285 184.664C729.32 183.224 732.197 182.144 732.916 181.424C734.354 179.624 735.433 177.284 736.153 174.405C737.232 171.165 737.771 167.745 737.771 164.146Z" fill="black"/>
<path d="M849.76 377.967C840.05 378.327 832.857 378.507 828.182 378.507C823.507 378.507 819.551 378.507 816.315 378.507C814.157 378.507 813.078 377.787 813.078 376.347C813.078 374.547 814.157 373.647 816.315 373.647C827.103 373.647 833.756 370.767 836.274 365.008C839.151 359.248 840.589 342.33 840.589 314.252V174.945C840.589 168.825 838.611 162.526 834.656 156.046C830.7 149.207 824.406 141.827 815.775 133.908C815.056 133.188 814.696 132.648 814.696 132.288C814.696 131.568 815.056 131.028 815.775 130.668C823.327 127.789 830.879 124.189 838.432 119.869C845.984 115.55 851.558 111.59 855.154 107.99C855.874 107.271 856.413 107.091 856.773 107.451C857.132 107.451 857.672 107.81 858.391 108.53C864.505 114.29 869.719 122.389 874.035 132.828C878.35 142.907 880.508 152.627 880.508 161.986C895.612 141.827 911.256 127.069 927.44 117.71C943.623 107.99 961.245 103.131 980.305 103.131C1009.79 103.131 1031.73 112.31 1046.12 130.668C1060.86 149.027 1068.23 176.384 1068.23 212.741V325.591C1068.23 333.151 1068.41 339.63 1068.77 345.03C1069.13 350.429 1069.67 354.929 1070.39 358.528C1071.83 364.288 1073.99 368.427 1076.86 370.947C1079.74 373.107 1085.5 374.007 1094.13 373.647C1096.28 373.647 1097.36 374.547 1097.36 376.347C1097.36 377.787 1096.28 378.507 1094.13 378.507C1093.41 378.507 1091.97 378.507 1089.81 378.507C1087.65 378.507 1083.34 378.327 1076.86 377.967C1066.8 377.967 1059.6 377.967 1055.29 377.967C1050.97 377.607 1047.92 377.427 1046.12 377.427C1045.04 377.427 1043.42 377.427 1041.26 377.427C1039.1 377.427 1035.33 377.607 1029.93 377.967C1021.66 378.327 1015.37 378.507 1011.05 378.507C1007.1 378.507 1003.5 378.507 1000.26 378.507C998.107 378.507 997.028 377.787 997.028 376.347C997.028 374.547 998.107 373.647 1000.26 373.647C1012.49 373.647 1020.04 370.407 1022.92 363.928C1026.16 357.448 1027.78 343.59 1027.78 322.352V207.342C1027.42 178.904 1021.48 157.126 1009.97 142.007C998.826 126.889 983.002 119.329 962.503 119.329C945.96 119.329 931.575 123.109 919.348 130.668C907.121 137.868 894.354 150.467 881.048 168.465V373.647H909.099C911.256 373.647 912.335 374.547 912.335 376.347C912.335 377.787 911.256 378.507 909.099 378.507C908.379 378.507 907.121 378.507 905.322 378.507C903.524 378.507 899.928 378.327 894.534 377.967C885.903 377.967 879.789 377.967 876.193 377.967C872.596 377.607 869.899 377.427 868.101 377.427C867.022 377.427 865.224 377.427 862.706 377.427C860.549 377.427 856.233 377.607 849.76 377.967Z" fill="black"/>
<path d="M1191.51 28.6175C1191.51 36.5368 1188.63 43.1962 1182.88 48.5957C1177.48 53.9952 1170.83 56.695 1162.92 56.695C1155.01 56.695 1148.35 53.9952 1142.96 48.5957C1137.56 43.1962 1134.87 36.5368 1134.87 28.6175C1134.87 20.6982 1137.56 14.0388 1142.96 8.63923C1148.35 2.87975 1155.01 0 1162.92 0C1170.83 0 1177.48 2.87975 1182.88 8.63923C1188.63 14.0388 1191.51 20.6982 1191.51 28.6175ZM1146.74 377.967C1136.31 378.327 1128.57 378.507 1123.54 378.507C1118.86 378.507 1114.91 378.507 1111.67 378.507C1109.51 378.507 1108.44 377.787 1108.44 376.347C1108.44 374.547 1109.51 373.647 1111.67 373.647C1126.06 373.647 1135.05 370.947 1138.64 365.548C1142.6 359.788 1144.58 344.31 1144.58 319.112V174.945C1144.58 156.946 1142.6 145.607 1138.64 140.928C1135.05 135.888 1125.52 134.988 1110.05 138.228C1107.9 138.588 1106.46 138.048 1105.74 136.608C1105.38 135.168 1106.28 134.268 1108.44 133.908C1120.3 131.388 1131.45 127.789 1141.88 123.109C1152.31 118.07 1163.64 111.41 1175.87 103.131C1176.94 102.411 1178.74 102.591 1181.26 103.671C1184.14 104.751 1185.58 105.831 1185.58 106.911V319.112C1185.58 344.31 1187.37 359.788 1190.97 365.548C1194.93 370.947 1203.92 373.647 1217.94 373.647C1220.1 373.647 1221.18 374.547 1221.18 376.347C1221.18 377.787 1220.1 378.507 1217.94 378.507C1214.71 378.507 1210.75 378.507 1206.07 378.507C1201.4 378.507 1194.21 378.327 1184.5 377.967C1178.02 377.607 1173.53 377.427 1171.01 377.427C1168.85 377.427 1167.23 377.427 1166.16 377.427C1165.08 377.427 1163.28 377.427 1160.76 377.427C1158.24 377.427 1153.57 377.607 1146.74 377.967Z" fill="black"/>
<path d="M1274.36 377.967C1264.65 378.327 1257.46 378.507 1252.78 378.507C1248.11 378.507 1244.15 378.507 1240.91 378.507C1238.76 378.507 1237.68 377.787 1237.68 376.347C1237.68 374.547 1238.76 373.647 1240.91 373.647C1251.7 373.647 1258.36 370.767 1260.87 365.008C1263.75 359.248 1265.19 342.33 1265.19 314.252V174.945C1265.19 168.825 1263.21 162.526 1259.26 156.046C1255.3 149.207 1249.01 141.827 1240.38 133.908C1239.66 133.188 1239.3 132.648 1239.3 132.288C1239.3 131.568 1239.66 131.028 1240.38 130.668C1247.93 127.789 1255.48 124.189 1263.03 119.869C1270.58 115.55 1276.16 111.59 1279.75 107.99C1280.47 107.271 1281.01 107.091 1281.37 107.451C1281.73 107.451 1282.27 107.81 1282.99 108.53C1289.1 114.29 1294.32 122.389 1298.63 132.828C1302.95 142.907 1305.11 152.627 1305.11 161.986C1320.21 141.827 1335.86 127.069 1352.04 117.71C1368.22 107.99 1385.84 103.131 1404.9 103.131C1434.39 103.131 1456.33 112.31 1470.72 130.668C1485.46 149.027 1492.83 176.384 1492.83 212.741V325.591C1492.83 333.151 1493.01 339.63 1493.37 345.03C1493.73 350.429 1494.27 354.929 1494.99 358.528C1496.43 364.288 1498.59 368.427 1501.46 370.947C1504.34 373.107 1510.1 374.007 1518.73 373.647C1520.88 373.647 1521.96 374.547 1521.96 376.347C1521.96 377.787 1520.88 378.507 1518.73 378.507C1518.01 378.507 1516.57 378.507 1514.41 378.507C1512.25 378.507 1507.94 378.327 1501.46 377.967C1491.4 377.967 1484.2 377.967 1479.89 377.967C1475.57 377.607 1472.51 377.427 1470.72 377.427C1469.64 377.427 1468.02 377.427 1465.86 377.427C1463.7 377.427 1459.93 377.607 1454.53 377.967C1446.26 378.327 1439.97 378.507 1435.65 378.507C1431.7 378.507 1428.1 378.507 1424.86 378.507C1422.71 378.507 1421.63 377.787 1421.63 376.347C1421.63 374.547 1422.71 373.647 1424.86 373.647C1437.09 373.647 1444.64 370.407 1447.52 363.928C1450.76 357.448 1452.38 343.59 1452.38 322.352V207.342C1452.02 178.904 1446.08 157.126 1434.57 142.007C1423.43 126.889 1407.6 119.329 1387.1 119.329C1370.56 119.329 1356.18 123.109 1343.95 130.668C1331.72 137.868 1318.95 150.467 1305.65 168.465V373.647H1333.7C1335.86 373.647 1336.94 374.547 1336.94 376.347C1336.94 377.787 1335.86 378.507 1333.7 378.507C1332.98 378.507 1331.72 378.507 1329.92 378.507C1328.12 378.507 1324.53 378.327 1319.13 377.967C1310.5 377.967 1304.39 377.967 1300.79 377.967C1297.2 377.607 1294.5 377.427 1292.7 377.427C1291.62 377.427 1289.82 377.427 1287.31 377.427C1285.15 377.427 1280.83 377.607 1274.36 377.967Z" fill="black"/>
<path d="M1734.79 504.315C1716.45 516.554 1696.85 525.914 1675.99 532.393C1655.49 539.232 1635.71 542.652 1616.65 542.652C1590.04 543.012 1568.46 536.713 1551.92 523.754C1535.73 511.155 1527.64 494.596 1527.64 474.078C1527.64 455.72 1536.27 437.721 1553.53 420.083C1571.16 402.804 1592.73 389.666 1618.27 380.666C1593.45 379.586 1575.11 376.167 1563.24 370.407C1551.74 364.288 1545.98 355.469 1545.98 343.95C1545.98 332.071 1553.17 321.272 1567.56 311.552C1582.3 301.473 1600.65 294.814 1622.58 291.574C1598.49 287.255 1579.79 277.356 1566.48 261.877C1553.17 246.038 1546.52 226.06 1546.52 201.942C1546.52 174.585 1557.31 151.547 1578.89 132.828C1600.82 113.75 1627.62 104.211 1659.26 104.211C1671.49 104.211 1685.16 103.131 1700.26 100.971C1715.37 98.8113 1735.69 94.8516 1761.22 89.0921C1770.93 86.5723 1777.4 85.1325 1780.64 84.7725C1784.24 84.0526 1786.75 83.6926 1788.19 83.6926C1792.51 83.6926 1796.1 84.4126 1798.98 85.8524C1802.22 87.2923 1803.83 89.2721 1803.83 91.7919C1803.83 97.5514 1801.32 103.311 1796.28 109.07C1791.61 114.47 1786.03 117.17 1779.56 117.17C1777.4 117.17 1774.17 116.99 1769.85 116.63C1765.89 116.27 1758.34 115.37 1747.19 113.93C1727.41 111.41 1712.31 109.79 1701.88 109.07C1691.45 107.99 1682.28 107.451 1674.37 107.451V108.53C1701.34 112.13 1722.56 122.209 1738.02 138.768C1753.85 155.326 1761.76 176.024 1761.76 200.862C1761.76 228.58 1751.15 251.078 1729.93 268.356C1709.07 285.275 1681.74 293.734 1647.94 293.734C1645.42 293.734 1643.44 293.734 1642 293.734C1640.56 293.734 1639.3 293.554 1638.23 293.194C1618.81 294.634 1603.34 298.054 1591.83 303.453C1580.33 308.493 1574.57 314.972 1574.57 322.891C1574.57 331.531 1579.25 337.65 1588.6 341.25C1598.31 344.49 1617.55 346.109 1646.32 346.109H1718.6C1745.58 346.109 1766.43 351.329 1781.18 361.768C1795.92 372.207 1803.3 386.426 1803.3 404.424C1803.3 421.703 1797.18 439.161 1784.95 456.8C1772.73 474.438 1756 490.277 1734.79 504.315ZM1586.98 196.003C1586.98 224.44 1592.91 246.938 1604.78 263.497C1616.65 280.055 1633.01 288.335 1653.87 288.335C1675.81 288.335 1692.53 280.775 1704.04 265.657C1715.91 250.538 1721.84 228.94 1721.84 200.862C1721.84 174.945 1715.73 153.346 1703.5 136.068C1691.27 118.43 1675.45 109.61 1656.03 109.61C1633.01 109.61 1615.75 116.81 1604.24 131.208C1592.73 145.607 1586.98 167.205 1586.98 196.003ZM1629.6 380.666C1605.86 387.866 1586.8 397.945 1572.41 410.904C1558.39 424.223 1551.38 438.261 1551.38 453.02C1551.38 472.098 1560.01 486.857 1577.27 497.296C1594.89 507.735 1619.53 512.955 1651.17 512.955C1687.14 512.955 1718.78 504.495 1746.11 487.577C1773.81 470.658 1787.65 450.68 1787.65 427.642C1787.65 411.084 1780.82 399.025 1767.15 391.465C1753.85 384.266 1731.37 380.666 1699.72 380.666H1632.83C1632.47 380.666 1631.93 380.666 1631.21 380.666C1630.49 380.666 1629.95 380.666 1629.6 380.666Z" fill="black"/>
<path d="M2016 300.753C2016 324.511 2006.83 344.31 1988.49 360.148C1970.15 375.987 1947.13 383.906 1919.44 383.906C1909.73 383.906 1900.38 383.366 1891.39 382.286C1882.76 381.566 1874.31 380.486 1866.03 379.047C1856.68 377.247 1846.26 374.547 1834.75 370.947C1823.6 366.988 1817.13 364.828 1815.33 364.468C1813.89 364.108 1812.81 363.388 1812.09 362.308C1811.73 361.228 1811.55 359.428 1811.55 356.908C1811.55 356.189 1811.55 355.469 1811.55 354.749C1811.55 353.669 1811.73 351.869 1812.09 349.349C1813.17 337.83 1813.89 325.051 1814.25 311.013C1814.61 296.614 1814.79 279.875 1814.79 260.797C1814.79 258.277 1815.51 257.017 1816.95 257.017C1818.38 257.017 1819.1 258.277 1819.1 260.797C1819.1 282.755 1821.08 301.293 1825.04 316.412C1829.35 331.531 1835.65 343.59 1843.92 352.589C1851.83 361.588 1861.9 368.247 1874.13 372.567C1886.71 376.887 1901.82 379.047 1919.44 379.047C1942.46 379.047 1959.9 374.547 1971.77 365.548C1983.63 356.189 1989.57 342.69 1989.57 325.051C1989.57 311.732 1984.17 300.393 1973.38 291.034C1962.6 281.675 1939.4 271.056 1903.8 259.177C1868.19 247.298 1844.1 235.779 1831.51 224.62C1818.92 213.101 1812.63 199.422 1812.63 183.584C1812.63 159.466 1822.34 140.028 1841.76 125.269C1861.18 110.51 1884.74 103.131 1912.43 103.131C1921.42 103.131 1929.51 103.311 1936.7 103.671C1943.89 104.031 1950.91 104.571 1957.74 105.291C1964.21 106.011 1972.3 107.271 1982.01 109.07C1992.08 110.51 1998.92 111.59 2002.51 112.31C2003.95 112.67 2004.85 113.21 2005.21 113.93C2005.93 114.29 2006.29 115.19 2006.29 116.63C2006.29 119.509 2006.11 124.009 2005.75 130.129C2005.75 136.248 2005.57 146.867 2005.21 161.986C2004.49 178.184 2003.95 189.703 2003.59 196.543C2003.59 203.022 2003.59 207.882 2003.59 211.121C2003.59 213.281 2002.87 214.361 2001.44 214.361C2000 214.361 1999.28 213.281 1999.28 211.121C1999.28 195.283 1997.84 181.424 1994.96 169.545C1992.44 157.666 1988.49 147.407 1983.09 138.768C1976.26 128.329 1966.91 120.589 1955.04 115.55C1943.53 110.15 1929.51 107.451 1912.97 107.451C1890.67 107.451 1872.69 111.77 1859.02 120.409C1845.36 129.049 1838.52 140.388 1838.52 154.426C1838.52 167.025 1843.74 178.004 1854.17 187.363C1864.6 196.723 1887.79 207.702 1923.76 220.301C1961.16 233.259 1985.79 245.678 1997.66 257.557C2009.89 269.436 2016 283.835 2016 300.753Z" fill="black"/>
</g>
</svg>
