<svg width="32" height="32" viewBox="0 0 32 32" fill="none" xmlns="http://www.w3.org/2000/svg">
<path d="M24.6301 9.1894C24.6301 9.1894 27.2603 9.51652 28 9.02584C26.7671 9.68008 25.5342 10.4979 24.5479 11.4792C24.5479 11.4792 25.5342 22.3559 14.1096 24.9728C14.1096 24.9728 8.19178 25.4635 4 22.2741C4 22.2741 8.52055 23.5008 10.9863 20.7203C10.9863 20.7203 6.79452 21.1292 5.72603 17.858C6.71233 17.858 7.69863 17.6945 8.68493 17.4491C8.68493 17.4491 4.73973 16.7131 4.82192 12.7877C5.47945 13.1966 6.21918 13.3602 7.0411 13.3602C7.0411 13.3602 3.75342 10.4161 5.80822 6.98135C5.80822 6.98135 10.1644 12.297 15.589 11.9699C14.9315 9.51652 16.411 6.98135 18.9589 6.32712C20.6027 5.91822 22.2466 6.4089 23.3973 7.55381C24.5479 7.30847 25.6164 6.81779 26.6027 6C26.5205 6.16356 26.6027 7.63559 24.6301 9.1894Z" fill="black"/>
</svg>
