<svg width="16" height="16" viewBox="0 0 16 16" fill="none" xmlns="http://www.w3.org/2000/svg">
<path d="M12.3151 4.5947C12.3151 4.5947 13.6301 4.75826 14 4.51292C13.3836 4.84004 12.7671 5.24894 12.274 5.73961C12.274 5.73961 12.7671 11.1779 7.05479 12.4864C7.05479 12.4864 4.09589 12.7318 2 11.1371C2 11.1371 4.26027 11.7504 5.49315 10.3602C5.49315 10.3602 3.39726 10.5646 2.86301 8.92901C3.35616 8.92901 3.84931 8.84723 4.34247 8.72456C4.34247 8.72456 2.36986 8.35655 2.41096 6.39385C2.73973 6.5983 3.10959 6.68008 3.52055 6.68008C3.52055 6.68008 1.87671 5.20805 2.90411 3.49068C2.90411 3.49068 5.08219 6.14851 7.79452 5.98495C7.46575 4.75826 8.20548 3.49068 9.47945 3.16356C10.3014 2.95911 11.1233 3.20445 11.6986 3.7769C12.274 3.65424 12.8082 3.4089 13.3014 3C13.2603 3.08178 13.3014 3.81779 12.3151 4.5947Z" fill="black"/>
</svg>
