<svg width="32" height="32" viewBox="0 0 32 32" fill="none" xmlns="http://www.w3.org/2000/svg">
<path fill-rule="evenodd" clip-rule="evenodd" d="M22.0736 2.8C22.2736 2.4 22.5736 2 23.1736 2H27.0736C27.2736 2 27.4736 2.1 27.5736 2.3C27.6736 2.5 27.6736 2.7 27.5736 2.9L18.6736 18.7L24.3736 29.1C24.4736 29.3 24.4736 29.5 24.3736 29.7C24.2736 29.9 24.0736 30 23.8736 30H19.8736C19.2736 30 18.9736 29.6 18.7736 29.2L13.0736 18.7L22.0736 2.8ZM5.675 7.80065C5.875 7.60065 6.075 7.50065 6.275 7.50065H10.175C10.775 7.50065 11.075 7.90065 11.275 8.30065C11.725 9.10065 12.2 9.90064 12.675 10.7006C13.15 11.5006 13.625 12.3006 14.075 13.1007L9.675 20.8007C9.475 21.2007 9.175 21.6007 8.575 21.6007H4.575C4.375 21.6007 4.175 21.5007 4.075 21.3007C3.975 21.1007 3.975 20.9007 4.075 20.7007L8.375 13.1007L5.675 8.40065C5.575 8.20065 5.575 8.00065 5.675 7.80065Z" fill="black"/>
</svg>
