<svg width="16" height="16" viewBox="0 0 16 16" fill="none" xmlns="http://www.w3.org/2000/svg">
<path fill-rule="evenodd" clip-rule="evenodd" d="M11.0099 1.39716C11.1092 1.19858 11.2084 1 11.5063 1H13.4921C13.5914 1 13.6907 1 13.79 1.19858C13.8893 1.29787 13.8893 1.39716 13.79 1.49645L9.32192 9.34042L12.3006 14.6028C12.3999 14.7021 12.3999 14.8014 12.3006 14.9007C12.2014 15 12.1021 15 12.0028 15H10.017C9.71908 15 9.5205 14.8014 9.42121 14.6028L6.54178 9.34042L11.0099 1.39716ZM2.7695 3.88021C2.86879 3.78092 2.96809 3.78092 3.06738 3.78092H5.05319C5.35106 3.78092 5.54965 3.9795 5.64894 4.07879L7.1383 6.46177L4.9539 10.3341C4.91245 10.3756 4.87533 10.417 4.83983 10.4566C4.70522 10.6069 4.59386 10.7313 4.35816 10.7313H2.37234C2.27305 10.7313 2.17376 10.7313 2.07447 10.632C1.97518 10.5327 1.97518 10.4334 2.07447 10.3341L4.15957 6.56106L2.7695 4.17808C2.7695 4.14498 2.75847 4.11189 2.74744 4.07879C2.72537 4.0126 2.70331 3.9464 2.7695 3.88021Z" fill="black"/>
</svg>
